<svg xmlns="http://www.w3.org/2000/svg" viewBox="0 0 600 600" role="img" aria-label="Visible Co logo">
  <defs>
    <linearGradient id="blueGrad" x1="0" y1="0" x2="0" y2="1">
      <stop offset="0%" stop-color="#2374ff"/>
      <stop offset="100%" stop-color="#153fd3"/>
    </linearGradient>
  </defs>
  <rect width="600" height="600" fill="#f4f5f7"/>
  <g transform="translate(85,80)">
    <path d="M130 75h70l90 155 92-72-123 154z" fill="#10244f"/>
    <path d="M335 130l45-16v104l-45 9z" fill="url(#blueGrad)"/>
    <path d="M388 110l45-16v132l-45 10z" fill="url(#blueGrad)"/>
    <path d="M441 82l48-17v164l-48 11z" fill="url(#blueGrad)"/>
    <path d="M252 243c53-57 133-92 218-106-66 24-130 62-178 121h-40z" fill="#173f98"/>

    <text x="40" y="350" font-size="78" font-family="Inter, Arial, sans-serif" font-weight="700" fill="#10244f">Visible</text>
    <text x="332" y="350" font-size="78" font-family="Inter, Arial, sans-serif" font-weight="700" fill="#2374ff">Co</text>
    <line x1="68" y1="386" x2="116" y2="386" stroke="#2374ff" stroke-width="2.5"/>
    <line x1="442" y1="386" x2="490" y2="386" stroke="#2374ff" stroke-width="2.5"/>
    <text x="146" y="395" font-size="22" letter-spacing="8" font-family="Inter, Arial, sans-serif" fill="#10244f">DIGITAL MARKETING</text>
  </g>
</svg>
